<svg version="1.1" xmlns="http://www.w3.org/2000/svg" xmlns:xlink="http://www.w3.org/1999/xlink" x="0px" y="0px" width="907px"
	 height="401.8px" viewBox="0 0 907 401.8" style="overflow:visible;enable-background:new 0 0 907 401.8;" xml:space="preserve">
<style type="text/css">
	.st0{opacity:5.000000e-02;}
	.st1{fill:#3A2C32;}
	.st2{fill:#2898B2;}
	.st3{fill:#80D0F3;}
	.st4{fill:#95DDF7;}
	.st5{fill:#3DB7DE;}
	.st6{fill:#FBFFF9;}
	.st7{fill:#FBC55C;}
	.st8{fill:#FFB9B4;}
	.st9{fill:#001335;}
	.st10{fill:#FFFFFF;}
	.st11{fill:#123C5E;}
	.st12{fill:none;stroke:#012943;stroke-width:0.7561;stroke-miterlimit:10;}
	.st13{fill:none;stroke:#D8D8D8;stroke-width:0.7203;stroke-miterlimit:10;}
	.st14{fill:none;stroke:#282E30;stroke-width:3.5285;stroke-miterlimit:10;}
	.st15{fill:#282E30;}
	.st16{fill:#1A1E21;}
	.st17{fill:none;stroke:#FCA800;stroke-width:2.0163;stroke-miterlimit:10;}
	.st18{fill:#FFCE73;}
	.st19{fill:#3C4149;}
	.st20{fill:#4A280D;}
	.st21{fill:#FF9592;}
	.st22{fill:none;stroke:#1D0A03;stroke-width:0.5659;stroke-linecap:round;stroke-linejoin:round;stroke-miterlimit:10;}
	.st23{fill:#1D0A03;}
	.st24{fill:#F96045;}
	.st25{fill:#FF8A83;}
	.st26{fill:none;stroke:#FF6854;stroke-width:0.5196;stroke-miterlimit:10;}
	.st27{fill:#F2F2F2;}
	.st28{fill:#F9CEDE;}
	.st29{fill:#20120C;}
	.st30{fill:#BFC9D8;}
	.st31{fill:#506804;stroke:#000000;stroke-width:0.1;stroke-miterlimit:10;}
	.st32{fill:#0B9B92;}
	.st33{fill:#6AD8AB;}
	.st34{fill:#54EF9D;}
</style>
<defs>
</defs>
<g class="st0">
	<g>
		<polygon class="st1" points="237.5,401.8 230.5,401.8 229.1,371.6 239,371.6 		"/>
		<polygon class="st1" points="639,401.8 632,401.8 630.6,371.6 640.5,371.6 		"/>
		<g>
			<g>
				<polygon class="st2" points="641.7,252 627,251 591.9,262.2 591.9,309.9 641.7,309.9 				"/>
				<polygon class="st2" points="227.2,252 241.9,251 277,262.2 277,309.9 227.2,309.9 				"/>
				<path class="st3" d="M573.3,218.2H472.9h-98h-79.4c-10.8,0-19.5,6.8-19.5,15.2v94.2c0,8.4,8.7,15.2,19.5,15.2h79.4h98h100.4
					c10.8,0,19.5-6.8,19.5-15.2v-94.2C592.9,225,584.1,218.2,573.3,218.2z"/>
				<path class="st3" d="M659.7,386.4h-53.3V262.1c0-6.7,5.4-12.1,12.1-12.1h33.9c6.7,0,12.1,5.4,12.1,12.1v119.4
					C664.6,384.2,662.4,386.4,659.7,386.4z"/>
				<path class="st3" d="M216,386.4h46.5V272.6c0-12.5-13-22.6-29.1-22.6l0,0c-16.1,0-29.1,10.1-29.1,22.6v104.7
					C204.3,382.3,209.6,386.4,216,386.4z"/>
				<polygon class="st3" points="472.9,358.7 374.9,358.7 262.5,358.7 262.5,386.4 374.9,386.4 472.9,386.4 606.4,386.4 
					606.4,358.7 				"/>
				<polygon class="st4" points="472.9,309.9 374.9,309.9 262.5,309.9 262.5,358.7 374.9,358.7 472.9,358.7 606.4,358.7 
					606.4,309.9 				"/>
				<polygon class="st2" points="591.9,299.1 472.9,299.1 374.9,299.1 277,299.1 262.5,309.9 374.9,309.9 472.9,309.9 606.4,309.9 
									"/>
				<rect x="262.5" y="355.6" class="st5" width="343.9" height="3.1"/>
			</g>
			<g>
				<path class="st6" d="M375.8,297.3l-71.7,4.3c-2.7,0.2-5-1.4-5.2-3.5l-4.6-45.9c-0.2-2.1,1.8-3.9,4.5-4.1l71.7-4.3
					c2.7-0.2,5,1.4,5.2,3.5l4.6,45.9C380.5,295.3,378.5,297.1,375.8,297.3z"/>
				<path class="st7" d="M451.7,304.7h-71.8c-2.7,0-4.9-2.2-4.9-4.9V256c0-2.7,2.2-4.9,4.9-4.9h71.8c2.7,0,4.9,2.2,4.9,4.9v43.8
					C456.6,302.5,454.4,304.7,451.7,304.7z"/>
			</g>
		</g>
	</g>
	<g>
		<g>
			<g>
				<g>
					<g>
						<polygon class="st8" points="710.1,350.8 705.2,382.3 722.4,381.8 728.5,352.2 						"/>
						<g>
							<g>
								<path class="st9" d="M705.7,378L677,388.9c-1.9,0.9-2.9,3-2.4,5.1l0,0l50.6,0.6l-1.9-16.7L705.7,378z"/>
								<polygon class="st10" points="726.1,400.2 674,399.5 674,394 726.1,394.7 								"/>
							</g>
						</g>
					</g>
					<path class="st11" d="M756,169.6l-1,2.8c-10.3,16.1-19.9,36.4-26.4,54.3l-20,54.9l-7.2,77.8l34.3,2.3l8.7-70.5l40.6-75.2
						l-2.1-43.9L756,169.6z"/>
				</g>
				<g>
					<g>
						<polygon class="st8" points="819.4,336.4 837.5,364.8 852.1,355.7 836,328.3 						"/>
						<g>
							<g>
								<path class="st9" d="M835.6,361.4l-20.3,25.8c-1.2,1.8-1.1,4.3,0.4,6l0,0L862,367l-11.4-13.2L835.6,361.4z"/>
								<polygon class="st10" points="865.6,371.5 817.9,398.5 815.1,393.5 862.8,366.5 								"/>
							</g>
						</g>
					</g>
					<g>
						<path class="st11" d="M766.3,211.3l14.1,75.8l37.1,60.2l30.8-16.7l-30.6-49.4l1.2-51.1c0,0-2.9-46.8-18.7-64.5l-29.7,4.6
							L766.3,211.3z"/>
						<polyline class="st12" points="771.7,240.8 767.7,215.4 757.1,205.9 						"/>
					</g>
				</g>
			</g>
			<g>
				<g>
					<g>
						<path class="st8" d="M738,117.8l-6.6,40.6c-0.7,4.4,2.2,8.6,6.6,9.5l0,0c4.3,0.9,8.5-1.6,9.8-5.7l13.3-42.7L738,117.8z"/>
						<g>
							<path class="st8" d="M732.9,155.1l-30.6,44l10.3,3.6l33.7-37.6c3.9-4.6,1.8-11.7-4.1-13.4l0,0
								C738.7,150.8,735,152.2,732.9,155.1z"/>
							<path class="st8" d="M702.3,199.1c0,0-16.5,5.8-14.2,18.2l19.5-7l4.9-7.5L702.3,199.1z"/>
						</g>
					</g>
					<g>
						<path class="st10" d="M743.8,94.9l-24.5,45.8c13.6,15,27.4,20.4,27.4,20.4l7.7-12.4L743.8,94.9z"/>
					</g>
				</g>
				<g>
					<path class="st10" d="M782.1,85c0,0,17.7-2,26,7.9c5.5,6.6,1.7,89.2,1.7,89.2s-37.3,13.4-61.5,1.9l-6.7-81.1
						c0-6.1,3.6-11.7,9.2-14c1.6-0.6,9.1-3.2,18.2-3.4C778.1,85.3,782.1,85,782.1,85z"/>
					<line class="st13" x1="746.3" y1="157.2" x2="743.3" y2="123.3"/>
				</g>
				<g>
					<g>
						<g>
							<path class="st14" d="M752.7,382.2c-31,3.8-22.3-31.2,45.6-78.2c15.1-10.5,26.9-21.5,34.9-29.4c10-9.9,17.5-22.2,20.6-35.9
								c6.2-27.2-6.1-46.3-22.1-56.7c-22.8-14.8-51.7,0.3-51.7,0.3l-201.4,86"/>
							<g>
								<path class="st15" d="M538.2,281.9c0.7-1,43.2-19.2,43.2-19.2l6.7,5.9l-40.4,17.7L538.2,281.9z"/>
								<g>
									<path class="st15" d="M510.3,274.2l60,39.8l1.8-4.7c1.9-5.1-2.1-12-6.7-15l-36.4-23.8c-4-2.6-9.2-2.6-13.1,0L510.3,274.2z"
										/>
									<path class="st7" d="M514,271.7l57.8,38.6l1.8-4.7c1.9-5.1,0-10.8-4.6-13.7L532.6,268c-4-2.6-9.2-2.6-13.1,0L514,271.7z"/>
								</g>
							</g>
						</g>
						<g>
							<polygon class="st16" points="752.9,390.1 773.7,388.4 772.5,373.9 751.6,375.6 							"/>
							<path class="st7" d="M844.6,394.3l-63.5,5.3c-12.1,1-21.9-9.6-19.7-21.4l6.3-33c2.1-11.3,11.7-19.7,23.3-20.7l67.5-5.6
								c14.3-1.2,26.8,9.2,28,23.3l4.2,48.3L844.6,394.3z"/>
							<line class="st17" x1="766.1" y1="354.1" x2="854.3" y2="346.7"/>
							<g>
								<g>
									<path class="st18" d="M830.2,374.6c-1.8-20.8,13.9-39.2,35.1-40.9c21.2-1.8,39.8,13.7,41.6,34.5c0.7,7.7-1.1,15-4.5,21.3
										l-64,5.4C833.8,389.2,830.8,382.2,830.2,374.6z"/>
								</g>
								<g>
									<path class="st19" d="M839.7,373.8c1.4,15.7,15.4,27.3,31.3,25.9c15.9-1.3,27.7-15.1,26.4-30.8
										c-1.4-15.7-15.4-27.3-31.3-25.9C850.2,344.3,838.4,358.1,839.7,373.8z"/>
									<path class="st16" d="M856.5,372.4c0.6,6.5,6.4,11.3,13,10.8c6.6-0.6,11.5-6.3,11-12.8c-0.6-6.5-6.4-11.3-13-10.8
										C860.9,360.1,856,365.8,856.5,372.4z"/>
								</g>
							</g>
						</g>
					</g>
					<g>
						<g>
							<g>
								<g>
									<path class="st8" d="M790,175.4l-9,0.2c-3.9,0.1-6.9,0.1-9.7,2.8c-2.9,2.9-5.2,7.1-2.1,12.3c5.9,10.1,10.4-2.2,10.4-2.2
										s7.6,2.1,15-4.1L790,175.4z"/>
									<path class="st8" d="M790,175.4l41.8-26.7c5.3-3.1,12.1-0.7,14.3,5l0,0c2,5.2-0.8,11.1-6.2,12.9l-45.3,17.8L790,175.4z"/>
								</g>
								<polygon class="st8" points="844.8,151.5 815.5,113.3 802.1,133.5 828.6,160.6 								"/>
							</g>
						</g>
						<g>
							<path class="st10" d="M803.9,89.3c17.2,11.5,42.8,42.5,42.8,42.5c-4.2,12-31.9,27.8-31.9,27.8l-19.9-21.9L803.9,89.3z"/>
							<line class="st13" x1="811.3" y1="154.9" x2="785.6" y2="127"/>
						</g>
					</g>
				</g>
			</g>
			<g>
				<ellipse class="st20" cx="774.6" cy="38.7" rx="27.4" ry="26.9"/>
				<ellipse class="st20" cx="789.2" cy="14.9" rx="15.1" ry="14.9"/>
				<path class="st20" d="M762,20.6c0,0-29.9,0.6-14.5,27.6l14.6-1L762,20.6z"/>
				<path class="st21" d="M760.3,51.9c0.5,4-2.4,7.7-6.5,8.2c-4.1,0.5-7.8-2.3-8.4-6.4c-0.5-4,2.4-7.7,6.5-8.2
					C756.1,45,759.8,47.8,760.3,51.9z"/>
				<path class="st8" d="M764.6,72.2l1.7,13.5c0.7,5.6,4.5,8.2,10.1,7.5l0,0c4.8-0.6,9.8,0.4,9.8-4.3l-4.9-26.4L764.6,72.2z"/>
				<polygon class="st21" points="765.8,82.2 779.9,70.7 764.4,70.6 				"/>
				<path class="st8" d="M769.7,74.5L769.7,74.5c-9.6,0.6-17.9-6.4-18.7-14.1l-1.6-18.1c-0.9-9.6,6.1-18.3,15.8-19.5l0,0
					c10-1.3,20.9,5.5,22.2,15.3l1.2,14.6C789.4,64,781.1,73.1,769.7,74.5z"/>
				<g>
					<polyline class="st22" points="760.6,57.1 760.4,60.4 762.9,60.4 					"/>
					<path class="st23" d="M771.5,44.4c0,0-4.2-0.2-4.1,1.5c0,0,0.1,1.2,3.7,1.2c3.6,0.1,4.6-0.2,4.8-1.3S773.5,44.3,771.5,44.4z"/>
					<path class="st23" d="M754.2,45.6c0,0,3.4-0.5,3.8,1.1c0,0,0.2,1.1-2.8,1.5c-3,0.4-4,0-4.3-0.8
						C750.5,46.3,752.6,45.7,754.2,45.6z"/>
					<path class="st22" d="M772.5,52.5c0,0-2.5,2.5-5.6,0.3"/>
					<path class="st22" d="M757,53.7c0,0-1.5,2.4-4.6,0.3"/>
					<path class="st22" d="M761.1,64.7c0,0,3.5,0.9,5.8-1.1"/>
				</g>
				<path class="st20" d="M754.4,25.6c0,0,11.3,14.3,34.1,12.5c0,0-5.1-15.3-18.4-17.7C756.8,18.1,754.4,25.6,754.4,25.6z"/>
				<path class="st20" d="M777.7,27.7c0,0-8,12.1,8.5,22.6c0,0,14.2-11.3,4.6-20.5C781.1,20.7,777.7,27.7,777.7,27.7z"/>
				<g>
					<path class="st8" d="M797.3,50.1c0.5,4-2.4,7.7-6.5,8.2c-4.1,0.5-7.8-2.3-8.4-6.4c-0.5-4,2.4-7.7,6.5-8.2
						C793.1,43.2,796.8,46.1,797.3,50.1z"/>
					<path class="st22" d="M787.6,53.5c0,0-0.7-5.3,4.6-5.1"/>
				</g>
				<g>
					<path class="st24" d="M801.1,45.4c0,0,2.1-7.4,0.7-10.6c-8.9-20.3-30.3-18.5-34.7-20.9l3.8,2C771.6,16,793.6,25.7,801.1,45.4z"
						/>
					<g>
						<path class="st25" d="M775.3,13.3c0,0,8.6-6.1,22.1-2.2c0,0-15.7,15.2-24.9,5.7L775.3,13.3z"/>
						<path class="st25" d="M769.1,12.3c0,0-0.8-5.8-18.6-9c0,0,1.6,19.6,18.5,12.8l0,0"/>
						<path class="st26" d="M774.4,15.8c0,0,1.3-1.3,6.6-1.2"/>
						<path class="st26" d="M769.3,14.5c0,0-1.9-2-6-2.2"/>
						<path class="st25" d="M768.6,14.1c-0.1,2.2,1.6,4,3.8,4c2.2,0.1,4-1.6,4.1-3.8c0.1-2.2-1.6-4-3.8-4
							C770.5,10.2,768.7,11.9,768.6,14.1z"/>
					</g>
				</g>
				<path class="st8" d="M766.3,85.7c0,0-11.9,9.6-5.8,14.4c6.1,4.7,26.9-5,25.8-11.2L766.3,85.7z"/>
			</g>
		</g>
	</g>
	<g>
		<path class="st27" d="M99.5,113.9c0.1,23.2-18.7,42-41.9,42.1c-23.2,0.1-42-18.7-42.1-41.9c-0.1-23.2,18.7-42,41.9-42.1
			C80.7,72,99.5,90.8,99.5,113.9z"/>
		<path class="st10" d="M57.5,76C36.8,76,20,92.9,20.1,113.6c0,20.7,16.9,37.5,37.6,37.4c20.7,0,37.5-16.9,37.4-37.6
			C95,92.7,78.2,75.9,57.5,76z"/>
		<path class="st28" d="M57.7,162.2c-26.9,0.1-48.8-21.7-48.8-48.6C8.8,86.7,30.6,64.8,57.5,64.8c26.9-0.1,48.8,21.7,48.8,48.6
			C106.4,140.3,84.5,162.2,57.7,162.2z M57.5,78.6c-19.2,0-34.9,15.7-34.8,35c0,19.2,15.7,34.9,35,34.8c19.2,0,34.9-15.7,34.8-35
			C92.4,94.2,76.7,78.6,57.5,78.6z"/>
		<path class="st29" d="M57.8,121.7c-0.8,0-1.6-0.4-2-1.2l-10-19.4c-0.6-1.1-0.1-2.5,1-3.1c1.1-0.6,2.5-0.1,3.1,1l10,19.4
			c0.6,1.1,0.1,2.5-1,3.1C58.5,121.6,58.1,121.7,57.8,121.7z"/>
		<path class="st29" d="M49.6,119.1c-0.5,0-1-0.4-1.1-0.9c-0.1-0.6,0.3-1.2,0.9-1.3l37-6.5c0.6-0.1,1.2,0.3,1.3,0.9
			c0.1,0.6-0.3,1.2-0.9,1.3l-37,6.5C49.7,119.1,49.7,119.1,49.6,119.1z"/>
	</g>
	<g>
		<path class="st30" d="M88.2,397.4H30.9c-1.9,0-3.4-1.5-3.4-3.4v-37.7c0-0.7,0.5-1.2,1.2-1.2h61.8c0.7,0,1.2,0.5,1.2,1.2V394
			C91.6,395.9,90.1,397.4,88.2,397.4z"/>
		<g>
			<path class="st31" d="M61.5,355l1.2-24V316c0,0,0.9-16.9,10.4-26.4l2.4-2.6l-1.6-1.2c0,0-9.5,4-14.2,23.8l-1.6,28l-5.6-25.2h-4
				c0,0,9.2,26.6,10.1,42.6H61.5z"/>
			<polygon class="st31" points="60.3,276.3 60.3,283.6 60.3,285.4 58.2,284 58.2,277.8 			"/>
		</g>
		<path class="st32" d="M46.8,206c0,0,1.3,4.5-7.5,11.4c0,0-8.5,5.2,0.8,11.7c0,0,2.5,1.1,1.2,3.8c0,0-2,3.5-10.6-3.4
			c0,0-7.2,12.6,7.3,16.8c0,0,4.6,0.9,0.5,4c0,0-9.7,2.2-13.2-5.3c0,0-9.6,19.3,10.8,18.1c0,0,4.7,1.5-0.3,5.6c0,0-9.7,0.8-12.7-2.2
			c0,0,0,27,35.7,12.8c0,0,37.5,4.9,32-29c0,0-19.4,13.2-14.6,3.9c0,0,18.8-8,4.5-22.3c0,0-2.2,7.7-9.7,11.1c0,0-5.5-0.4-3.5-3.4
			c0,0,15.2-8.1,3.3-19.9c0,0-4.6,8.7-8.8,7.9c0,0-2.8-0.6,0-4.1c0,0,5.4-6.2-1.6-10.4C60.3,213,49.2,211.3,46.8,206z"/>
		<path class="st33" d="M25.3,261.9c0,0,11.5,4,9.3,15.9c0,0-1.3,4.9,2.8,4.1c0,0,3.1-1.4,1.9-12.9c0,0,17.4,3.6,9.1,17.3
			c0,0-1.8,5.5,4.2,3.9c0,0,3.2-1.4,3.8-10.5c0,0,25.1,22.1-6.9,33.7l-1.1,0.2c0,0-3.6,13.3-16.3,15.2c0,0-9.9,0.8-16.5-9.3
			c0,0,6.3-1.3,9.7-3.4c0,0,2.5-4.2-2.5-4.9c0,0-8,5.2-12.9-0.9c0,0-3.5-3.8-4.7-9.3c0,0,6.7,2.5,12.7,0c0,0,1.6-3.1-0.9-3.9
			c0,0-15.2,2.5-16.3-10c0,0,6.7,1.4,8.9-1.3c0,0,2-3.1-2.4-3.6c0,0-9.7,1.4-6.6-9.3c0,0,1.4-5.6-0.6-11c0,0,3.6,2.5,14.4,0
			c0,0,8.2-0.6,5.5,9.6C20,271.6,25.7,277.5,25.3,261.9z"/>
		<path class="st34" d="M134.8,268.4c0,0-4.1-4.9-8.8,0c0,0-4.6,7.2-5.8,1.4c0,0,0.4-5.3,4.2-8.9c0,0-12.6-6.9-16.9,6.6
			c0,0-1.6,4.7-4.5,0.5c0,0-3.5-3.4,7.1-12.5c0,0-17.6-8.4-18.9,8.6c0,0-1.5,4.7-4.6,1.4c0,0-2.6-5.5,2.2-12.9c0,0-32-0.4-15.4,34.5
			c0,0-9.3,36.4,23.8,29.9c0,0-4.7-6.1-6-9.8c0,0-1.1-7.2,5-2.7c0,0,6.6,15.8,21.1,4.2c0,0-10.1-4.6-9.7-11.5c0,0,2.8-3.1,4.4,1.3
			c0,0,7.1,10.8,17.9,1.3c0,0-7.1-4.5-6.8-8.7c0,0,1.2-3.5,4.6,0c0,0,6.4,6.1,10.4-2.2c0,0,1.2-7.4,7.9-11.1
			C145.9,277.7,139.8,277.1,134.8,268.4z M129.1,277c0,0-4.6,2.5-5.8,0c0,0-1.8-1.8,1.6-4.8c0,0,4.1-3.9,6.9-1.2
			C131.9,271,134,273.4,129.1,277z"/>
	</g>
</g>
</svg>
