<svg version="1.1" xmlns="http://www.w3.org/2000/svg" xmlns:xlink="http://www.w3.org/1999/xlink" x="0px" y="0px" width="144.5px"
	 height="49.3px" viewBox="0 0 144.5 49.3" style="overflow:visible;enable-background:new 0 0 144.5 49.3;" xml:space="preserve">
<style type="text/css">
	.st0{fill:#FFFFFF;}
</style>
<defs>
</defs>
<g>
	<g>
		<g>
			<path class="st0" d="M43.6,18c0-6.6,5-11.2,11.9-11.2c4,0,7.2,1.4,9.3,4.1l-3.9,3.5c-1.4-1.6-3-2.5-5.1-2.5c-3.5,0-6,2.5-6,6.2
				s2.5,6.2,6,6.2c2.1,0,3.7-0.9,5.1-2.5l3.9,3.5c-2.1,2.6-5.3,4.1-9.3,4.1C48.6,29.2,43.6,24.6,43.6,18z"/>
			<path class="st0" d="M76.9,23.1h-3.3v5.7h-6.1V7.2h9.9c5.9,0,9.6,3.1,9.6,8c0,3.2-1.5,5.5-4.2,6.8l4.7,6.8h-6.5L76.9,23.1z
				 M76.9,12h-3.4v6.3h3.4c2.5,0,3.8-1.2,3.8-3.1C80.7,13.2,79.5,12,76.9,12z"/>
			<path class="st0" d="M107.6,24.1v4.7H90.2V7.2h16.9v4.7H96.3v3.6h9.6v4.6h-9.6v3.9H107.6z"/>
			<path class="st0" d="M144.5,7.2l-7,21.6H131l-4.1-13.1l-4.3,13.1H116l-7-21.6h6.3l4.3,13.8l4.6-13.8h5.6l4.3,13.9l4.5-13.9H144.5
				z"/>
		</g>
		<g>
			<path class="st0" d="M67.3,43.5l0-5.1l-2.5,4.2h-1.2l-2.5-4v5h-2.5v-9.7h2.2l3.4,5.6l3.3-5.6h2.2l0,9.7H67.3z"/>
			<path class="st0" d="M79,41.7h-4.1l-0.8,1.9h-2.8l4.3-9.7h2.7l4.3,9.7h-2.8L79,41.7z M78.2,39.6L77,36.6l-1.2,3.1H78.2z"/>
			<path class="st0" d="M93.4,33.9v9.7h-2.2l-4.3-5.1v5.1h-2.7v-9.7h2.2l4.3,5.1v-5.1H93.4z"/>
			<path class="st0" d="M102.6,41.7h-4.1l-0.8,1.9H95l4.3-9.7h2.7l4.3,9.7h-2.8L102.6,41.7z M101.8,39.6l-1.2-3.1l-1.2,3.1H101.8z"
				/>
			<path class="st0" d="M114.2,38.5h2.4v4c-1.1,0.8-2.6,1.2-4.1,1.2c-3.1,0-5.3-2.1-5.3-5s2.2-5,5.4-5c1.8,0,3.3,0.6,4.2,1.8
				l-1.7,1.6c-0.7-0.7-1.4-1.1-2.3-1.1c-1.7,0-2.8,1.1-2.8,2.8c0,1.6,1.1,2.8,2.7,2.8c0.5,0,1-0.1,1.5-0.3V38.5z"/>
			<path class="st0" d="M126.9,41.4v2.1h-7.8v-9.7h7.6V36h-4.9v1.6h4.3v2h-4.3v1.8H126.9z"/>
			<path class="st0" d="M133.5,41H132v2.6h-2.7v-9.7h4.4c2.6,0,4.3,1.4,4.3,3.6c0,1.4-0.7,2.5-1.9,3l2.1,3h-2.9L133.5,41z M133.5,36
				H132v2.8h1.5c1.1,0,1.7-0.5,1.7-1.4C135.2,36.6,134.6,36,133.5,36z"/>
		</g>
	</g>
	<g>
		<g>
			<rect x="12.5" y="29.3" class="st0" width="1.9" height="1.9"/>
			<rect x="15.2" y="29.3" class="st0" width="1.9" height="1.9"/>
			<rect x="12.5" y="32" class="st0" width="1.9" height="1.9"/>
			<rect x="15.2" y="32" class="st0" width="1.9" height="1.9"/>
			<rect x="31.7" y="29.3" class="st0" width="1.9" height="1.9"/>
			<rect x="34.4" y="29.3" class="st0" width="1.9" height="1.9"/>
			<rect x="31.7" y="32" class="st0" width="1.9" height="1.9"/>
			<rect x="34.4" y="32" class="st0" width="1.9" height="1.9"/>
			<path class="st0" d="M33.4,18l-8.8,13.9l-2.8-4v-7.1h-2.7V24l-3.9-5.7L4,32.3c-0.9-2.4-1.4-4.9-1.4-7.6c0-12.1,9.9-22,22-22
				c6.9,0,13,3.2,17,8.1c0.5-0.9,1-1.7,1.5-2.3C38.7,3.3,32,0,24.7,0C11.1,0,0,11.1,0,24.7c0,5.6,1.8,10.7,5,14.8
				c4.5,6,11.7,9.9,19.7,9.9c4.6,0,8.9-1.3,12.6-3.4c0.4-0.2,0.8-0.5,1.1-0.7c2.2-1.5,4.2-3.4,5.9-5.5L41,39.3
				c-12.6-1.2-18.4,1.1-18.4,1.1c3.3,0.3,8.1,1.8,12.6,3.5c-0.4,0.2-0.8,0.5-1.3,0.6c-9.9-3.6-18.4-5-25.6-5.2
				c-1.2-1.4-2.3-2.9-3.2-4.6L5.3,35l9.8-12.2l8.7,12.7h1.7l8.2-12.9l19.2,20.9h3.6L33.4,18z"/>
			<circle class="st0" cx="25.6" cy="16.1" r="3.9"/>
			<circle class="st0" cx="28.8" cy="9.8" r="2.4"/>
		</g>
	</g>
</g>
</svg>
