<svg version="1.1" xmlns="http://www.w3.org/2000/svg" xmlns:xlink="http://www.w3.org/1999/xlink" x="0px" y="0px" width="56.5px"
	 height="49.3px" viewBox="0 0 56.5 49.3" style="overflow:visible;enable-background:new 0 0 56.5 49.3;" xml:space="preserve">
<style type="text/css">
	.st0{fill:#FFFFFF;}
</style>
<defs>
</defs>
<g>
	<g>
		<g>
			<rect x="12.5" y="29.3" class="st0" width="1.9" height="1.9"/>
			<rect x="15.2" y="29.3" class="st0" width="1.9" height="1.9"/>
			<rect x="12.5" y="32" class="st0" width="1.9" height="1.9"/>
			<rect x="15.2" y="32" class="st0" width="1.9" height="1.9"/>
			<rect x="31.7" y="29.3" class="st0" width="1.9" height="1.9"/>
			<rect x="34.4" y="29.3" class="st0" width="1.9" height="1.9"/>
			<rect x="31.7" y="32" class="st0" width="1.9" height="1.9"/>
			<rect x="34.4" y="32" class="st0" width="1.9" height="1.9"/>
			<path class="st0" d="M33.4,18l-8.8,13.9l-2.8-4v-7.1h-2.7V24l-3.9-5.7L4,32.3c-0.9-2.4-1.4-4.9-1.4-7.6c0-12.1,9.9-22,22-22
				c6.9,0,13,3.2,17,8.1c0.5-0.9,1-1.7,1.5-2.3C38.7,3.3,32,0,24.7,0C11.1,0,0,11.1,0,24.7c0,5.6,1.8,10.7,5,14.8
				c4.5,6,11.7,9.9,19.7,9.9c4.6,0,8.9-1.3,12.6-3.4c0.4-0.2,0.8-0.5,1.1-0.7c2.2-1.5,4.2-3.4,5.9-5.5L41,39.3
				c-12.6-1.2-18.4,1.1-18.4,1.1c3.3,0.3,8.1,1.8,12.6,3.5c-0.4,0.2-0.8,0.5-1.3,0.6c-9.9-3.6-18.4-5-25.6-5.2
				c-1.2-1.4-2.3-2.9-3.2-4.6L5.3,35l9.8-12.2l8.7,12.7h1.7l8.2-12.9l19.2,20.9h3.6L33.4,18z"/>
			<circle class="st0" cx="25.6" cy="16.1" r="3.9"/>
			<circle class="st0" cx="28.8" cy="9.8" r="2.4"/>
		</g>
	</g>
</g>
</svg>
